<svg xmlns="http://www.w3.org/2000/svg" viewBox="0 0 544.6 122.21"><defs><style>.cls-1{fill:#005cb9;}.cls-2{fill:#7c868c;}</style></defs><g id="Layer_2" data-name="Layer 2"><g id="Layer_1-2" data-name="Layer 1"><g id="Layer_1-3" data-name="Layer 1"><path class="cls-1" d="M477.5,4.76c12.2-1.4,21.7-.6,28.9,2.7a18.54,18.54,0,0,1,7.8,7.4c3.5,6.5,4.5,14.6,2.3,20.7l-.4,1.2-3.6,10.1a23.36,23.36,0,0,1,2.8,2.7,18.2,18.2,0,0,1,4.1,12.2A18.75,18.75,0,0,1,515.3,74a12.19,12.19,0,0,1-9.8,5.1c-3.8,0-6.9-1.7-9.6-5.1a12.62,12.62,0,0,1-1.4-2l-8.5,6.7c-10,8.4-21.9,15.6-35.5,21.9-2.9,1.3-5.8,2.5-9,3.6a106.48,106.48,0,0,1-17.9,4.5c-18.1,2.6-30.4-.6-37.2-9.4a17.36,17.36,0,0,1-2.7-4.5q-3.9-9.3,0-21.9A84.41,84.41,0,0,1,394,52.56a76.89,76.89,0,0,0-10.3,13.3c-6.7,11-9.6,21.9-8.2,32.7a24.68,24.68,0,0,0,7.4,14.8c.9.7.6.6.9.7,8.1,6.7,20.1,9.3,36.3,7.7a116.92,116.92,0,0,0,21.6-4.5c2.5-.7,1.6-.4,2.5-.7a164.77,164.77,0,0,0,51.4-29.7,22.56,22.56,0,0,0,10.4,2.6c6.9,0,12.7-2.8,17.5-8.2a27.49,27.49,0,0,0,7.4-19.2,28,28,0,0,0-3.5-14c3.5-9.1,4.2-17.7,2.5-25.8a24.52,24.52,0,0,0-9.8-15.8,31.75,31.75,0,0,0-6.8-3.6C505.8.26,497.4-.44,488,.26a91.13,91.13,0,0,0-26.3,6.8,118.12,118.12,0,0,1,15.8-2.3"/><path class="cls-1" d="M401.8,49a13.77,13.77,0,0,1,4.2-5.5,10.5,10.5,0,0,1,6.2-1.7c2.8,0,4.9.6,6.5,2a6,6,0,0,1,2.6,5.1c0,2-1.2,3.8-3.5,5.4s-5.6,2-10.1,1.6v8c4.5-.4,7.8.1,10.1,1.7s3.5,3.6,3.5,5.9a7.12,7.12,0,0,1-2.6,5.6,9.63,9.63,0,0,1-6.5,2.2,9.8,9.8,0,0,1-6.2-2,15.45,15.45,0,0,1-4.2-5.9l-10,2.9c.3,3.3,2.2,6.5,5.8,9.6s8.2,4.6,14,4.6c6.1,0,11-1.6,14.9-4.8a15,15,0,0,0,5.8-12,12.38,12.38,0,0,0-2.9-8.3,15.92,15.92,0,0,0-4.8-3.6,15.66,15.66,0,0,0,4.8-3.5,10.57,10.57,0,0,0,2.9-7.5c0-4.2-1.9-8-5.8-11s-8.8-4.3-14.9-4.3c-5.8,0-10.4,1.4-14,4.1-3.6,2.9-5.5,5.9-5.8,9Z"/><path class="cls-1" d="M508.9,45.06a104.68,104.68,0,0,1,3.8-9.8,22.59,22.59,0,0,0-6.9-1c-6.8,0-12.6,2.7-17.5,8.1a28,28,0,0,0-7.4,19.5,28.54,28.54,0,0,0,2.9,12.7c2.9-2.5,5.9-4.2,8.8-6.7a30,30,0,0,1-.8-6.2,18.45,18.45,0,0,1,4.2-12.2c2.6-3.3,5.8-5.1,9.5-5.1a17,17,0,0,1,3.4.7"/><path class="cls-1" d="M464.2,63.06a10,10,0,0,1,3.2,7.4,10.17,10.17,0,0,1-3.2,7.4,9.8,9.8,0,0,1-7.2,2.9,10.3,10.3,0,0,1-7.2-2.9,10.89,10.89,0,0,1,0-14.8,10.66,10.66,0,0,1,7.2-2.9,9.8,9.8,0,0,1,7.2,2.9m-7.4-11.6h-2.2l12.9-17.2h-12l-12,16.5a45.14,45.14,0,0,0-3.5,5.4,35.64,35.64,0,0,0-4.1,10.9c-.1,1.2-.3,2.2-.3,3.3A17.39,17.39,0,0,0,439.9,82c.6.6,1.3,1.2,1.9,1.7a22.62,22.62,0,0,0,29.8,0,17,17,0,0,0,6.2-13.3,17.75,17.75,0,0,0-6.2-13.5c-3.9-3.7-8.8-5.4-14.8-5.4"/><polygon class="cls-2" points="340.5 34.66 340.5 40.55 356.2 40.55 356.2 87.56 362.3 87.56 362.3 40.55 378.1 40.55 378.1 34.66 340.5 34.66"/><polygon class="cls-2" points="329.7 74.16 295.5 34.85 295.4 34.66 293.8 34.66 293.8 87.56 300 87.56 300 48.66 333.8 87.45 333.9 87.56 335.6 87.56 335.6 34.66 329.7 34.66 329.7 74.16"/><path class="cls-2" d="M135.2,64.66H118.6L127,47Zm-7.3-30h-1.7l-24.6,52.4-.2.5H108l7.9-17.2H138l8.4,17.2h6.3l-24.5-52.7Z"/><path class="cls-2" d="M272.2,64.66H255.4L263.8,47Zm-7.4-30h-1.7l-24.8,52.4-.2.5h6.5l8.2-17.2h22.1l8,17,.1.2h6.4l-24.5-52.7Z"/><path class="cls-2" d="M234.6,62.06c0,4.9-1.1,8.8-3.3,11.9a15.79,15.79,0,0,1-9.1,6.6c-2.8,1-7.5,1.4-14.9,1.4h-5.7V40.56H205c6.9,0,12.5.5,16.1,1.4a17.66,17.66,0,0,1,9.9,7.2,20.78,20.78,0,0,1,3.3,8.7,27.66,27.66,0,0,1,.3,4.2M236.4,46h0a25.11,25.11,0,0,0-12.2-9.4c-3.9-1.3-9.6-1.9-17-1.9H195.9v52.9H213c6.4,0,11.6-1,15.3-2.9a19.44,19.44,0,0,0,8.8-8.9,26.85,26.85,0,0,0,3.5-13.9A28.26,28.26,0,0,0,236.4,46"/><path class="cls-2" d="M32.8,67.56H49.5a17.24,17.24,0,0,1-6.4,11.2,20.37,20.37,0,0,1-13.5,4.5,24.46,24.46,0,0,1-11.9-3,21,21,0,0,1-8.5-8.2A21.18,21.18,0,0,1,6.1,61a22.09,22.09,0,0,1,2.8-10.6,22.61,22.61,0,0,1,8.7-8.1,22.86,22.86,0,0,1,11.4-3,27.29,27.29,0,0,1,10.1,2.1A32,32,0,0,1,48.5,48l.2.2,4.6-4.4-.3-.3a41.35,41.35,0,0,0-11.5-7.7,33.91,33.91,0,0,0-12.8-2.5A29.54,29.54,0,0,0,14,37.06,25.55,25.55,0,0,0,3.8,47,26.31,26.31,0,0,0,0,61a26.41,26.41,0,0,0,6.6,17.8c5.8,6.7,13.3,9.9,23.1,9.9,7.9,0,14.3-2.3,19.4-7.2,4.8-4.9,7.2-11.5,7.2-19.6v-.4H33.1v6.1Z"/><path class="cls-2" d="M92.5,78.66a15,15,0,0,1-10.9,4.8c-3.7,0-8.6-1.6-11.2-5.2-2.5-3.3-2.5-7.6-2.4-11.4V34.56H62.1V68c0,5.7.4,10.8,5.4,15.4a21,21,0,0,0,14.2,5.4,20.37,20.37,0,0,0,14.8-6.1c4.4-4.5,4.8-9.1,4.8-14.7V34.66H95.2v32.5c0,3.9,0,8.3-2.7,11.5"/><path class="cls-2" d="M161.8,57.56v-.1h0V40.56h8.6a26.53,26.53,0,0,1,7.7.8,7.7,7.7,0,0,1,3.6,3,8.3,8.3,0,0,1,1.4,4.6,9.39,9.39,0,0,1-1.4,4.6,6.21,6.21,0,0,1-3.7,3c-1.6.7-4,1-7.5,1h-8.7Zm10.1,5.8h.5a22.73,22.73,0,0,0,8.7-1.7,13.57,13.57,0,0,0,6.1-5,13.48,13.48,0,0,0,1.9-7.5,13.47,13.47,0,0,0-10.7-13.6,67.84,67.84,0,0,0-11.9-.7H155.8v52.9h6V63.56h2.9l18.1,24.1.1.1h7.2Z"/><path class="cls-2" d="M540.7,26.16a.9.9,0,0,0,.5-.1c.1-.1.3-.1.3-.3a.75.75,0,0,0,.1-.5c0-.2,0-.3-.1-.4l-.3-.3c-.1-.1-.2-.1-.4-.1h-1.5v1.8h.8a1.27,1.27,0,0,1,.6-.1M538.6,29v-5.1h1.9a1.7,1.7,0,0,1,1.3.4,1.16,1.16,0,0,1,.4,1,1.27,1.27,0,0,1-.1.6,1.38,1.38,0,0,1-.3.4c-.1.1-.3.2-.4.3a.9.9,0,0,1-.5.1l1.5,2.3h-.7l-1.4-2.3h-1V29Zm.2-6a5,5,0,0,0-1.2.8,3.6,3.6,0,0,0-.8,1.2,3.65,3.65,0,0,0-.3,1.5,4,4,0,0,0,.3,1.5,2.55,2.55,0,0,0,.8,1.2,3.6,3.6,0,0,0,1.2.8,3.65,3.65,0,0,0,1.5.3,4,4,0,0,0,1.5-.3,5,5,0,0,0,1.2-.8,3.6,3.6,0,0,0,.8-1.2,3.65,3.65,0,0,0,.3-1.5,4,4,0,0,0-.3-1.5,2.55,2.55,0,0,0-.8-1.2,3.6,3.6,0,0,0-1.2-.8,3.65,3.65,0,0,0-1.5-.3,3.34,3.34,0,0,0-1.5.3m3.2-.6a3.92,3.92,0,0,1,2.3,2.3,5,5,0,0,1,0,3.4,3.92,3.92,0,0,1-2.3,2.3,5,5,0,0,1-3.4,0,3.92,3.92,0,0,1-2.3-2.3,5,5,0,0,1,0-3.4,3.92,3.92,0,0,1,2.3-2.3,4.67,4.67,0,0,1,1.7-.3,5.08,5.08,0,0,1,1.7.3"/></g></g></g></svg>