<?xml version="1.0" encoding="UTF-8"?>
<svg width="175px" height="41px" viewBox="0 0 175 41" version="1.1" xmlns="http://www.w3.org/2000/svg" xmlns:xlink="http://www.w3.org/1999/xlink">
    <!-- Generator: Sketch 54.1 (76490) - https://sketchapp.com -->
    <title>G360 Logo@1x</title>
    <desc>Created with Sketch.</desc>
    <g id="G360-Logo" stroke="none" stroke-width="1" fill="none" fill-rule="evenodd">
        <g id="G360-logo" fill-rule="nonzero">
            <path d="M172.475,14.98 C172.565,14.98 172.653,14.977 172.741,14.971 C172.820367,14.967226 172.898651,14.9510292 172.973,14.923 C173.038776,14.8973254 173.095249,14.8523566 173.135,14.794 C173.179384,14.7213774 173.200657,14.636984 173.196,14.552 C173.199622,14.4783977 173.183389,14.4051753 173.149,14.34 C173.117479,14.28714 173.073104,14.2431086 173.02,14.212 C172.964304,14.1789179 172.902918,14.1565338 172.839,14.146 C172.768608,14.1343268 172.697353,14.1286397 172.626,14.129 L172.084,14.129 L172.084,14.98 L172.475,14.98 L172.475,14.98 Z M172.085,16.328 L171.788,16.328 L171.788,13.872 L172.71,13.872 C172.982,13.872 173.18,13.93 173.305,14.046 C173.43,14.162 173.492,14.331 173.492,14.552 C173.492,14.658 173.476,14.752 173.445,14.832 C173.415595,14.9078156 173.370629,14.9766277 173.313,15.034 C173.257529,15.0892734 173.192472,15.1340008 173.121,15.166 C173.046734,15.1987239 172.96886,15.2225559 172.889,15.237 L173.604,16.328 L173.257,16.328 L172.582,15.238 L172.084,15.238 L172.084,16.328 L172.085,16.328 Z M172.542,13.278 C172.067872,13.2724457 171.612821,13.4644656 171.286,13.808 C171.127572,13.9750314 171.00325,14.1713648 170.92,14.386 C170.832,14.606 170.788,14.845 170.788,15.1 C170.788,15.355 170.832,15.593 170.92,15.814 C171.086049,16.2461744 171.41803,16.5939986 171.842,16.78 C172.056,16.875 172.289,16.922 172.542,16.922 C172.792,16.922 173.024,16.875 173.238,16.78 C173.662727,16.5944329 173.995484,16.2465507 174.162,15.814 C174.252,15.594 174.296,15.355 174.296,15.1 C174.296,14.845 174.252,14.607 174.162,14.386 C173.995484,13.9534493 173.662727,13.6055671 173.238,13.42 C173.018661,13.323952 172.781434,13.2755522 172.542,13.278 L172.542,13.278 Z M172.542,12.975 C172.837,12.975 173.11,13.029 173.364,13.138 C173.617,13.246 173.837,13.397 174.023,13.588 C174.409801,13.9956586 174.624063,14.5370471 174.621,15.099 C174.621,15.401 174.567,15.679 174.461,15.937 C174.259829,16.4423579 173.864268,16.8458448 173.363,17.057 C173.103665,17.1667565 172.824596,17.2222299 172.543,17.22 C171.987359,17.2237429 171.453724,17.0030775 171.063,16.608 C170.874372,16.4148512 170.724952,16.1869859 170.623,15.937 C170.515264,15.6712324 170.461225,15.3867608 170.464,15.1 C170.464,14.803 170.517,14.525 170.624,14.266 C170.73,14.006 170.876,13.781 171.062,13.589 C171.248,13.397 171.468,13.246 171.722,13.138 C171.975,13.029 172.248,12.975 172.542,12.975 L172.542,12.975 Z" id="Shape" fill="#346094"></path>
            <path d="M153.119,1.767 C157.042,1.29 160.122,1.575 162.456,2.674 C163.482,3.247 164.381,4.011 164.98,5.11 C166.091,7.266 166.433,9.94 165.726,11.94 L165.586,12.32 L164.419,15.664 C164.699,15.903 165.025,16.237 165.307,16.57 C166.193,17.67 166.611,19.006 166.611,20.583 C166.611,22.111 166.193,23.494 165.307,24.593 C164.463,25.693 163.391,26.266 162.13,26.266 C160.914,26.266 159.887,25.693 159.047,24.594 C158.815,24.261 158.627,24.07 158.582,23.926 L155.826,26.122 C152.603,28.892 148.776,31.281 144.386,33.334 C143.449,33.764 142.516,34.147 141.49,34.528 C139.606592,35.1883764 137.669282,35.6835783 135.7,36.008 C129.862,36.87 125.895,35.818 123.697,32.904 C123.341023,32.4496111 123.043996,31.9519893 122.813,31.423 C121.971,29.371 121.971,26.983 122.813,24.213 C123.466,22.206 124.539,19.915 126.126,17.527 C124.863786,18.8656685 123.752762,20.3392087 122.813,21.921 C120.663,25.549 119.729,29.131 120.15,32.713 C120.336,34.48 121.13,36.105 122.531,37.585 C122.813,37.822 122.737,37.767 122.813,37.822 C125.427,40.021 129.303,40.879 134.532,40.354 C136.961,40.116 139.1,39.576 141.49,38.874 C142.283,38.635 142.004,38.731 142.283,38.635 C148.543,36.297 154.053,33.048 158.863,28.845 C159.887,29.371 160.963,29.704 162.223,29.704 C164.463,29.704 166.333,28.797 167.873,26.983 C169.462,25.215 170.255,23.115 170.255,20.632 C170.255,18.912 169.883,17.335 169.135,15.999 C170.255,12.989 170.49,10.173 169.928,7.497 C169.6,5.493 168.529,3.645 166.753,2.292 C166.023,1.767 165.353,1.432 164.559,1.098 C162.13,0.238 159.423,-4.91273688e-15 156.387,0.238 C153.493,0.525 150.689,1.29 147.889,2.482 C149.621301,2.16895213 151.36624,1.93039927 153.119,1.767 M128.695,16.38 C129.069,15.52 129.535,14.947 130.051,14.566 C130.611,14.184 131.263,13.992 132.057,13.992 C132.944,13.992 133.645,14.184 134.162,14.662 C134.72,15.09 134.999,15.616 134.999,16.332 C134.999,17.001 134.625,17.574 133.879,18.099 C133.132,18.624 132.057,18.768 130.611,18.624 L130.611,21.25 C132.057,21.108 133.132,21.3 133.879,21.825 C134.625,22.35 134.999,23.017 134.999,23.782 C134.999,24.499 134.72,25.168 134.162,25.645 C133.645,26.122 132.944,26.361 132.057,26.361 C131.331476,26.3730761 130.623641,26.1366607 130.051,25.691 C129.536,25.311 129.069,24.594 128.695,23.734 L125.473,24.69 C125.567,25.788 126.173,26.84 127.34,27.843 C128.509,28.843 130.005,29.37 131.87,29.37 C133.833,29.37 135.42,28.843 136.68,27.795 C137.941,26.695 138.548,25.407 138.548,23.832 C138.548,22.78 138.267,21.872 137.613,21.108 C137.193,20.631 136.68,20.202 136.073,19.914 C136.68,19.581 137.193,19.244 137.613,18.768 C138.267,18.051 138.548,17.241 138.548,16.284 C138.548,14.899 137.941,13.657 136.68,12.654 C135.42,11.7 133.833,11.221 131.87,11.221 C130.005,11.221 128.509,11.7 127.34,12.559 C126.173,13.515 125.567,14.517 125.473,15.52 L128.695,16.38 L128.695,16.38 Z M163.25,15.09 C163.625,13.992 163.999,12.894 164.464,11.842 C163.764,11.604 163.018,11.509 162.224,11.509 C160.029,11.509 158.159,12.415 156.572,14.182 C154.985,15.951 154.192,18.099 154.192,20.631 C154.192,22.158 154.52,23.543 155.126,24.832 C156.061,24.022 157.026,23.44 157.959,22.629 C157.821,22.057 157.694,21.25 157.694,20.583 C157.694,19.007 158.159,17.67 159.049,16.572 C159.888,15.472 160.914,14.9 162.129,14.9 C162.549,14.9 162.875,14.947 163.251,15.09 L163.25,15.09 Z M148.82,21.012 C149.523,21.729 149.849,22.54 149.849,23.449 C149.849,24.355 149.523,25.169 148.82,25.884 C148.215,26.504 147.418,26.839 146.486,26.839 C145.601,26.839 144.85,26.505 144.151,25.884 C143.545,25.168 143.218,24.355 143.218,23.449 C143.218,22.54 143.545,21.729 144.151,21.012 C144.851,20.392 145.601,20.058 146.486,20.058 C147.418,20.058 148.215,20.392 148.82,21.012 L148.82,21.012 Z M146.439,17.192 L145.739,17.192 L149.896,11.509 L146.021,11.509 L142.143,16.953 C141.723,17.527 141.349,18.147 141.025,18.721 C140.37,19.915 139.902,21.157 139.715,22.301 C139.667,22.683 139.623,23.019 139.623,23.4 C139.623,24.832 140.088,26.124 141.025,27.222 C141.21,27.414 141.445,27.602 141.631,27.795 C142.985,29.035 144.573,29.656 146.439,29.656 C148.356,29.656 149.944,29.036 151.251,27.795 C152.558,26.601 153.259,25.168 153.259,23.4 C153.259,21.634 152.558,20.152 151.251,18.96 C149.944,17.766 148.356,17.193 146.439,17.193 L146.439,17.192 Z" id="Shape" fill="#005FB9"></path>
            <path d="M116.227,13.657 L116.227,29.226 L114.499,29.226 L114.499,13.658 L109.412,13.658 L109.412,11.938 L121.363,11.938 L121.363,13.657 L116.227,13.657 Z M105.908,11.938 L107.588,11.938 L107.588,29.226 L107.216,29.226 L96.054,16.14 L96.054,29.226 L94.28,29.226 L94.28,11.938 L94.652,11.938 L105.908,25.215 L105.908,11.938 Z M87.37,21.872 L81.58,21.872 L84.474,15.616 L87.369,21.872 L87.37,21.872 Z M84.707,11.938 L84.288,11.938 L76.302,29.225 L78.172,29.225 L80.832,23.543 L88.116,23.543 L90.731,29.225 L92.553,29.225 L84.707,11.938 Z M70.7,14.136 C72.101,14.565 73.173,15.378 73.968,16.572 C74.762,17.766 75.134,19.198 75.134,20.869 C75.134,22.447 74.807,23.784 74.061,24.88 C73.361,25.978 72.331,26.745 71.071,27.126 C70.137,27.46 68.551,27.603 66.214,27.603 L64.254,27.603 L64.254,13.659 L65.47,13.659 C67.898,13.659 69.625,13.849 70.7,14.136 L70.7,14.136 Z M75.507,15.618 C74.575,14.184 73.267,13.18 71.632,12.561 C70.464,12.177 68.692,11.94 66.17,11.94 L62.62,11.94 L62.62,29.226 L68.037,29.226 C70.137,29.226 71.773,28.893 72.939,28.272 C74.108,27.699 75.042,26.697 75.741,25.359 C76.488,24.022 76.861,22.542 76.861,20.821 C76.861,18.816 76.396,17.097 75.507,15.618 L75.507,15.618 Z M56.737,13.945 C57.252,14.183 57.623,14.47 57.95,14.995 C58.2516854,15.4656031 58.4139445,16.0120144 58.418,16.571 C58.418,17.144 58.232,17.669 57.95,18.146 C57.671,18.673 57.252,19.007 56.689,19.198 C56.129,19.435 55.335,19.532 54.214,19.532 L51.321,19.484 L51.321,13.658 L54.214,13.658 C55.382,13.658 56.271,13.753 56.737,13.945 L56.737,13.945 Z M52.954,11.938 L49.591,11.938 L49.591,29.227 L51.321,29.227 L51.321,21.203 L52.253,21.203 L58.323,29.227 L60.379,29.227 L54.309,21.203 C55.757,21.203 56.829,21.011 57.623,20.63 C58.4092344,20.2926136 59.0762771,19.7272819 59.538,19.007 C59.959,18.337 60.144,17.527 60.144,16.571 C60.144,15.425 59.82,14.47 59.211,13.705 C58.5948447,12.9387275 57.7396277,12.4010921 56.782,12.178 C56.084,12.034 54.822,11.938 52.954,11.938 L52.954,11.938 Z M40.16,15.617 L43.006,21.873 L37.263,21.873 L40.16,15.617 Z M40.394,11.939 L39.972,11.939 L32.034,29.226 L33.901,29.226 L36.47,23.543 L43.754,23.543 L46.464,29.226 L48.24,29.226 L40.394,11.94 L40.394,11.939 Z M20.454,26.026 C20.266,25.359 20.128,24.115 20.128,22.35 L20.128,11.938 L21.808,11.938 L21.808,22.35 C21.808,23.639 21.855,24.404 21.902,24.689 C21.994,25.359 22.18,25.93 22.462,26.409 C22.8309856,26.8972037 23.3113355,27.2901237 23.863,27.555 C24.453748,27.8648183 25.1099572,28.029042 25.777,28.034 C26.384,28.034 26.897,27.938 27.412,27.65 C27.925,27.414 28.345,27.078 28.719,26.647 C29.045,26.217 29.279,25.692 29.465,25.071 C29.606,24.64 29.652,23.736 29.652,22.35 L29.652,11.938 L31.332,11.938 L31.332,22.35 C31.332,23.925 31.147,25.167 30.867,26.122 C30.587,27.078 29.979,27.89 29.14,28.558 C28.251,29.274 27.177,29.657 25.917,29.657 C24.562,29.657 23.395,29.322 22.415,28.654 C21.4788723,28.0292565 20.7863953,27.1012455 20.454,26.026 Z M17,14.851 L17.001,14.851 L15.691,16.141 C14.8061737,15.2278151 13.7624912,14.4833442 12.611,13.944 C11.443,13.467 10.321,13.228 9.295,13.228 C7.98284733,13.2272141 6.69374354,13.5728609 5.558,14.23 C4.38371191,14.8683065 3.4009325,15.8082813 2.711,16.953 C2.09679902,18.0469007 1.77446096,19.2804637 1.775,20.535 C1.775,21.825 2.103,23.065 2.803,24.26 C3.46133894,25.4261985 4.43208699,26.3855178 5.606,27.03 C6.82,27.697 8.126,28.033 9.526,28.033 C11.254,28.033 12.75,27.556 13.966,26.505 C15.179,25.549 15.879,24.213 16.114,22.588 L10.694,22.588 L10.694,20.917 L17.981,20.917 C17.981,23.64 17.187,25.741 15.691,27.316 C14.104,28.843 12.096,29.656 9.481,29.656 C6.351,29.656 3.924,28.559 2.104,26.409 C0.703,24.69 0,22.779 0,20.583 C0,18.959 0.372,17.43 1.215,15.999 C2.009,14.613 3.084,13.513 4.484,12.749 C5.885,11.939 7.472,11.509 9.2,11.509 C10.693,11.509 12.003,11.796 13.308,12.321 C14.524,12.846 15.785,13.705 17,14.851 Z" id="Shape" fill="#8B939C"></path>
        </g>
    </g>
</svg>