<svg id="Layer_1" data-name="Layer 1" xmlns="http://www.w3.org/2000/svg" viewBox="0 0 262 55"><defs><style>.cls-1,.cls-3{fill:#005CB9;}.cls-2{fill:#eb0029;}.cls-3{font-size:4.1px;font-family:HelveticaNeue-Light, Helvetica Neue;}</style></defs><title>GHLogo2018F</title><path class="cls-1" d="M34.86,52a25.73,25.73,0,0,1-32-32A24.94,24.94,0,0,1,19.91,2.86a25.73,25.73,0,0,1,32,32A24.94,24.94,0,0,1,34.86,52ZM29.22,5a22.51,22.51,0,1,0,20.6,20.6A22.53,22.53,0,0,0,29.22,5Z"/><path class="cls-2" d="M37.51,33.44c0-4.09-2.08-6.93-4.65-11.44A85.17,85.17,0,0,1,27.4,10.31h0A71.56,71.56,0,0,1,22,21.93c-1.28,2.25-4.65,7.34-4.65,11.44,0,3.53,2.92,9.86,10,9.88h0A10.12,10.12,0,0,0,37.51,33.44Z"/><polygon class="cls-1" points="233.94 14.41 233.94 17.34 241.76 17.34 241.76 40.71 244.76 40.71 244.76 17.34 252.65 17.34 252.65 14.41 233.94 14.41"/><polygon class="cls-1" points="228.57 34.05 211.59 14.47 211.54 14.41 210.71 14.41 210.71 40.71 213.79 40.71 213.79 21.36 230.62 40.65 230.67 40.71 231.5 40.71 231.5 14.41 228.57 14.41 228.57 34.05"/><path class="cls-1" d="M128.26,14.41h-.87L115.16,40.46l-.12.25h3.26l3.94-8.53h11l4.16,8.53h3.11l-12.16-26.2Zm3.63,14.91h-8.27l4.17-8.81Z"/><path class="cls-1" d="M196.3,14.41h-.87L183.13,40.46l-.12.25h3.25l4.09-8.53h11l4,8.43,0,.1h3.18l-12.16-26.2ZM200,29.32h-8.34l4.17-8.81Z"/><path class="cls-1" d="M182.22,20h0a12.13,12.13,0,0,0-6-4.66,29.28,29.28,0,0,0-8.44-.94H162.1v26.3h8.49a16.72,16.72,0,0,0,7.6-1.45,9.92,9.92,0,0,0,4.38-4.45,13.52,13.52,0,0,0,1.74-6.9A14.88,14.88,0,0,0,182.22,20Zm-.9,8a10.05,10.05,0,0,1-1.62,5.93,8,8,0,0,1-4.5,3.3c-1.38.48-3.73.71-7.4.71H165V17.34h1.69a34.35,34.35,0,0,1,8,.71,8.77,8.77,0,0,1,4.92,3.59A10.94,10.94,0,0,1,181.32,28Z"/><path class="cls-1" d="M81,30.75h8.29a8.51,8.51,0,0,1-3.21,5.57,10.05,10.05,0,0,1-6.7,2.25,12.39,12.39,0,0,1-5.94-1.48A10.72,10.72,0,0,1,69.2,33a10.57,10.57,0,0,1-.15-10.79,11.23,11.23,0,0,1,4.31-4A11.43,11.43,0,0,1,79,16.69a13.58,13.58,0,0,1,5,1.06A15.84,15.84,0,0,1,88.71,21l.12.12L91.1,19,91,18.83A20.48,20.48,0,0,0,85.25,15a16.91,16.91,0,0,0-6.37-1.23,14.66,14.66,0,0,0-7.32,1.88,12.85,12.85,0,0,0-5.09,4.94,13.17,13.17,0,0,0-1.89,7,13.35,13.35,0,0,0,3.27,8.86c2.88,3.32,6.63,4.94,11.46,4.94A13.41,13.41,0,0,0,89,37.79a13.44,13.44,0,0,0,3.56-9.73v-.18H81Z"/><path class="cls-1" d="M110.65,36.28a7.43,7.43,0,0,1-5.44,2.39,7.23,7.23,0,0,1-5.59-2.57c-1.22-1.63-1.22-3.77-1.22-5.66v-16H95.47V30.94c0,2.83.2,5.36,2.67,7.65a10.44,10.44,0,0,0,7.06,2.7,10.17,10.17,0,0,0,7.35-3c2.21-2.21,2.39-4.53,2.39-7.33V14.39H112V30.54C112,32.48,112,34.67,110.65,36.28Z"/><path class="cls-1" d="M150.12,28.66h.24a11.14,11.14,0,0,0,4.31-.86,6.31,6.31,0,0,0,4-6.26,6.8,6.8,0,0,0-1.47-4.41,6.93,6.93,0,0,0-3.83-2.36,34.49,34.49,0,0,0-5.91-.36H142.1v26.3h3v-12h1.42l9,12,.05.07h3.6Zm-5-2.87v-.06h0v-8.4h4.27a11.93,11.93,0,0,1,3.8.42A3.8,3.8,0,0,1,155,19.27a4.19,4.19,0,0,1,.69,2.27,4.38,4.38,0,0,1-.7,2.28,3.11,3.11,0,0,1-1.85,1.5,10.06,10.06,0,0,1-3.73.49H145.1Z"/><text class="cls-3" transform="translate(254.58 17.33)">TM</text></svg>
