<svg xmlns="http://www.w3.org/2000/svg" viewBox="0 0 600 100"><defs><style>.cls-1{fill:#fff;}.cls-2{fill:#7c868c;}.cls-3{fill:#005cb9;}</style></defs><g id="Layer_2" data-name="Layer 2"><g id="Layer_1-2" data-name="Layer 1"><rect class="cls-1" width="600" height="100"/><path class="cls-2" d="M142,52.9h7.52a6.94,6.94,0,0,1-2.93,5,9.59,9.59,0,0,1-6.06,2,10.4,10.4,0,0,1-5.32-1.28,10.62,10.62,0,0,1-3.85-3.67,10.32,10.32,0,0,1-1.46-5,8.87,8.87,0,0,1,1.28-4.77A9.33,9.33,0,0,1,135,41.53a10.14,10.14,0,0,1,5.14-1.28,14.53,14.53,0,0,1,4.58.91A13.43,13.43,0,0,1,149,44.1h0l2-2-.18-.18a21.56,21.56,0,0,0-5.14-3.49,16.5,16.5,0,0,0-5.69-1.1,13.58,13.58,0,0,0-6.6,1.65,11.86,11.86,0,0,0-4.59,4.4,12.72,12.72,0,0,0-1.65,6.24,12.16,12.16,0,0,0,2.94,8.07,13.16,13.16,0,0,0,10.45,4.4,12.22,12.22,0,0,0,8.81-3.3,11.89,11.89,0,0,0,3.3-8.8v-.19H142.16L142,52.9Z"/><path class="cls-3" d="M342.1,24.66c5.5-.56,9.72-.19,13,1.28a7.52,7.52,0,0,1,3.48,3.3,12.15,12.15,0,0,1,1.1,9.36h0l-.18.55-1.65,4.58A7.82,7.82,0,0,1,359.15,45a8,8,0,0,1,1.84,5.5,8.28,8.28,0,0,1-1.84,5.5,5.21,5.21,0,0,1-4.4,2.2,5.71,5.71,0,0,1-4.4-2.2,1.65,1.65,0,0,1-.55-.92L346,58a76,76,0,0,1-16,9.9c-1.28.55-2.57,1.1-4,1.65a34.53,34.53,0,0,1-8.07,2c-8.07,1.1-13.75-.18-16.69-4.22a7.41,7.41,0,0,1-1.28-2q-1.65-4.14,0-9.91a38.88,38.88,0,0,1,4.58-9.17,43.8,43.8,0,0,0-4.58,6.05c-2.94,4.95-4.4,9.91-3.67,14.68a10.36,10.36,0,0,0,3.3,6.6c.37.18.18.18.37.18,3.67,2.94,9,4.22,16.32,3.49a61.11,61.11,0,0,0,9.72-2c1.1-.37.74-.18,1.1-.37a70.78,70.78,0,0,0,23.12-13.39,9.82,9.82,0,0,0,4.58,1.1A10.38,10.38,0,0,0,362.64,59a12.39,12.39,0,0,0,3.3-8.63,11.28,11.28,0,0,0-1.65-6.23,19.67,19.67,0,0,0,1.1-11.56,11.11,11.11,0,0,0-4.4-7.15,26.12,26.12,0,0,0-3.12-1.65,28.25,28.25,0,0,0-11.37-1.1,37.93,37.93,0,0,0-11.74,3.12A54.16,54.16,0,0,1,342.1,24.66Z"/><path class="cls-3" d="M308,44.46a5.16,5.16,0,0,1,1.83-2.38,4.43,4.43,0,0,1,2.75-.73,3.8,3.8,0,0,1,2.94.91,2.63,2.63,0,0,1,1.1,2.2A2.93,2.93,0,0,1,315,46.85a6.94,6.94,0,0,1-4.59.73v3.67c2-.18,3.49,0,4.59.74a3.18,3.18,0,0,1,1.65,2.56,3.63,3.63,0,0,1-1.1,2.57,4.67,4.67,0,0,1-2.94.92,4.52,4.52,0,0,1-2.75-.92A7.17,7.17,0,0,1,308,54.55l-4.59,1.29a7.05,7.05,0,0,0,2.57,4.4,9.81,9.81,0,0,0,6.24,2,10.42,10.42,0,0,0,6.78-2.2,6.5,6.5,0,0,0,2.57-5.32,5.27,5.27,0,0,0-1.28-3.67,6.9,6.9,0,0,0-2.2-1.65,5.09,5.09,0,0,0,2.2-1.65,4.42,4.42,0,0,0,1.28-3.31,6.34,6.34,0,0,0-2.57-5,11.45,11.45,0,0,0-6.78-2A9.73,9.73,0,0,0,306,39.33a5.93,5.93,0,0,0-2.57,4Z"/><path class="cls-3" d="M356.22,42.81l1.65-4.4a8.75,8.75,0,0,0-3.12-.36,10.39,10.39,0,0,0-7.89,3.66,12.51,12.51,0,0,0-3.3,8.81,11.73,11.73,0,0,0,1.29,5.68c1.28-1.1,2.56-1.83,4-2.93a12.72,12.72,0,0,1-.36-2.75,8,8,0,0,1,1.83-5.5,5.23,5.23,0,0,1,4.4-2.21C355.12,42.45,355.67,42.63,356.22,42.81Z"/><path class="cls-3" d="M332.74,45.57h-.92l5.87-7.71h-5.32l-5.32,7.34c-.55.73-1.1,1.65-1.65,2.38a13.65,13.65,0,0,0-1.83,5c0,.55-.18.91-.18,1.46a6.8,6.8,0,0,0,2,5.14,4.1,4.1,0,0,0,.92.73,9.76,9.76,0,0,0,6.79,2.57,10,10,0,0,0,6.78-2.57,8,8,0,0,0,0-12.1A14.71,14.71,0,0,0,332.74,45.57Zm3.3,5.31a4.6,4.6,0,0,1,1.47,3.31,4,4,0,0,1-1.47,3.3,4.4,4.4,0,0,1-3.3,1.28,4.69,4.69,0,0,1-3.3-1.28,4.67,4.67,0,0,1,6.6-6.61Z"/><polygon class="cls-2" points="280.28 38.23 280.28 40.8 287.44 40.8 287.44 61.89 290 61.89 290 40.8 297.16 40.8 297.16 38.23 280.28 38.23"/><polygon class="cls-2" points="275.33 55.84 260.11 38.23 260.11 38.23 259.19 38.23 259.19 61.89 262.12 61.89 262.12 44.47 277.35 61.89 277.35 61.89 278.08 61.89 278.08 38.23 275.33 38.23 275.33 55.84"/><path class="cls-2" d="M184.72,38.23H184L173,61.71v.18h2.93l3.49-7.7h9.9l3.86,7.7h2.75L184.72,38.23ZM188,51.62H180.5l3.85-7.89Z"/><path class="cls-2" d="M246.17,38.23h-.74L234.24,61.71v.18h2.94l3.67-7.7h9.9l3.67,7.7h2.93L246.17,38.23Zm3.48,13.39h-7.52L246,43.73Z"/><path class="cls-2" d="M233.51,43.18h0A10.67,10.67,0,0,0,228,39a27.64,27.64,0,0,0-7.71-.91h-5.13V61.89h7.7a14.06,14.06,0,0,0,6.79-1.28,9.5,9.5,0,0,0,4-4,11.73,11.73,0,0,0,1.65-6.24A13,13,0,0,0,233.51,43.18Zm-.73,7.34a9.14,9.14,0,0,1-1.47,5.32,7.34,7.34,0,0,1-4,2.93,26.72,26.72,0,0,1-6.78.55h-2.57V40.8h1.47a33.77,33.77,0,0,1,7.15.55,7.9,7.9,0,0,1,4.4,3.3A9,9,0,0,1,232.78,50.52Z"/><path class="cls-2" d="M168.76,57.85a6.91,6.91,0,0,1-4.95,2.21,6.16,6.16,0,0,1-4.95-2.39c-1.1-1.47-1.1-3.48-1.1-5.13V38.05h-2.57v15c0,2.56.18,4.76,2.38,7A9.93,9.93,0,0,0,164,62.44a8.72,8.72,0,0,0,6.6-2.75c2-2,2.21-4,2.21-6.6v-15h-2.57V52.72C170,54.55,170,56.57,168.76,57.85Z"/><path class="cls-2" d="M204.53,51.07h.18a10.12,10.12,0,0,0,3.85-.74,6.31,6.31,0,0,0,2.75-2.2,6.21,6.21,0,0,0,.92-3.3,5.9,5.9,0,0,0-1.28-4,6.34,6.34,0,0,0-3.49-2.2,32.94,32.94,0,0,0-5.32-.37h-4.95V62.07h2.75V51.25h1.29l8.25,10.82h3.3Zm-4.59-2.57h0V40.8h3.85a14.44,14.44,0,0,1,3.49.36,4.08,4.08,0,0,1,1.65,1.29,3.65,3.65,0,0,1,.55,2,4.13,4.13,0,0,1-.55,2,2.35,2.35,0,0,1-1.65,1.29,8.26,8.26,0,0,1-3.3.36h-4Z"/><path class="cls-3" d="M372.91,40.25h-4.59V37.86h11.74v2.39h-4.58V52.9h-2.57V40.25Z"/><path class="cls-3" d="M381.16,39.33a2.66,2.66,0,0,1,.37-1.1,1.35,1.35,0,0,1,1.1-.37,2,2,0,0,1,1.1.37,1.1,1.1,0,0,1,.55,1.1,1.3,1.3,0,0,1-.55,1.1,2.61,2.61,0,0,1-1.1.37,2,2,0,0,1-1.1-.37A2.66,2.66,0,0,1,381.16,39.33Zm.37,3.48h2.57V52.9h-2.57Z"/><path class="cls-3" d="M391.8,45.38a1.84,1.84,0,0,0-.91-.73,2.62,2.62,0,0,0-1.29-.37,2.38,2.38,0,0,0-1.1.18.85.85,0,0,0-.55.92,1,1,0,0,0,.55.92,8.69,8.69,0,0,0,1.65.55,2.48,2.48,0,0,1,1.1.37l1.1.55a1.86,1.86,0,0,1,.74.91,2.72,2.72,0,0,1,.36,1.29,5.44,5.44,0,0,1-.36,1.65,5,5,0,0,1-.92,1.1c-.37.18-.92.37-1.28.55a4.64,4.64,0,0,1-1.65.18,8,8,0,0,1-2.21-.36,4.27,4.27,0,0,1-1.83-1.29l1.65-1.65a1.88,1.88,0,0,0,1.1.92,3.53,3.53,0,0,0,1.47.36H390a.68.68,0,0,0,.55-.18.4.4,0,0,0,.37-.37c0-.18.18-.36.18-.55a1,1,0,0,0-.55-.91,7.08,7.08,0,0,0-1.84-.55,2.71,2.71,0,0,1-1.1-.37,4,4,0,0,1-.91-.55l-.74-.73a2.8,2.8,0,0,1-.18-1.29,3.39,3.39,0,0,1,.37-1.47,2.22,2.22,0,0,1,.91-.91,8.17,8.17,0,0,1,1.29-.55,3.92,3.92,0,0,1,1.47-.19,9.47,9.47,0,0,1,2.2.37,2.67,2.67,0,0,1,1.65,1.1Z"/><path class="cls-3" d="M400.79,45.38a1.82,1.82,0,0,0-.92-.73,2.55,2.55,0,0,0-1.28-.37,2.36,2.36,0,0,0-1.1.18.85.85,0,0,0-.55.92,1,1,0,0,0,.55.92,8.69,8.69,0,0,0,1.65.55,2.52,2.52,0,0,1,1.1.37l1.1.55a1.79,1.79,0,0,1,.73.91,2.62,2.62,0,0,1,.37,1.29,5.17,5.17,0,0,1-.37,1.65c-.18.55-.55.73-.91,1.1s-.92.37-1.29.55a5.17,5.17,0,0,1-1.65.18,8,8,0,0,1-2.2-.36,4.27,4.27,0,0,1-1.83-1.29l1.65-1.65a1.88,1.88,0,0,0,1.1.92,3.53,3.53,0,0,0,1.47.36H399a.69.69,0,0,0,.55-.18.39.39,0,0,0,.36-.37c0-.18.19-.36.19-.55a1,1,0,0,0-.55-.91,7.08,7.08,0,0,0-1.84-.55,2.71,2.71,0,0,1-1.1-.37,4.36,4.36,0,0,1-.92-.55l-.73-.73a2.8,2.8,0,0,1-.18-1.29,3.53,3.53,0,0,1,.36-1.47,2.24,2.24,0,0,1,.92-.91,8.17,8.17,0,0,1,1.29-.55,3.87,3.87,0,0,1,1.46-.19,9.29,9.29,0,0,1,2.2.37,2.67,2.67,0,0,1,1.66,1.1Z"/><path class="cls-3" d="M413.08,52.9H410.7V51.25h0a2.52,2.52,0,0,1-1.1,1.29,3.77,3.77,0,0,1-2,.55,3.65,3.65,0,0,1-1.65-.37,1.85,1.85,0,0,1-1.1-.92,8.05,8.05,0,0,1-.74-1.28,4.13,4.13,0,0,1-.18-1.47V42.63h2.57v6.6c0,.37.18.55.18.92.18.18.37.55.55.55a1.4,1.4,0,0,0,.92.18,2.38,2.38,0,0,0,1.1-.18,2.42,2.42,0,0,0,.73-.55,1.36,1.36,0,0,0,.37-.92,8.05,8.05,0,0,1,.18-.91V42.81h2.57V52.9Z"/><path class="cls-3" d="M424.45,48v.73h-7.7a7.86,7.86,0,0,0,.18.92,2.6,2.6,0,0,0,.55.73,3.77,3.77,0,0,0,.92.55,2.25,2.25,0,0,0,1.1.19,5.46,5.46,0,0,0,1.65-.37,4.71,4.71,0,0,0,1.1-.92l1.65,1.29a5.09,5.09,0,0,1-4.4,2,9.38,9.38,0,0,1-2.2-.37,2.65,2.65,0,0,1-1.65-1.1c-.37-.55-.92-.92-1.1-1.65a9,9,0,0,1-.37-2.2,7.6,7.6,0,0,1,.37-2.2,3.32,3.32,0,0,1,1.1-1.66,9.28,9.28,0,0,1,1.65-1.1,6.35,6.35,0,0,1,4.22,0,3.36,3.36,0,0,1,1.65,1.1,13.27,13.27,0,0,1,1.1,1.66A9.08,9.08,0,0,1,424.45,48Zm-2.57-1.1a1.69,1.69,0,0,0-.18-.92c-.18-.36-.18-.55-.37-.73a2.42,2.42,0,0,0-.73-.55,2.25,2.25,0,0,0-1.1-.19,2.78,2.78,0,0,0-2,.74,2.92,2.92,0,0,0-.91,1.83l5.31-.18Z"/><path class="cls-3" d="M425.74,37.86h3.48l7,11.19h0V37.86h2.57v15h-3.12l-7.15-11.55h0V52.9h-2.57v-15Z"/><path class="cls-3" d="M450.5,48v.73h-7.71a7.49,7.49,0,0,0,.19.92,2.27,2.27,0,0,0,.55.73,3.59,3.59,0,0,0,.92.55,2.23,2.23,0,0,0,1.1.19,5.46,5.46,0,0,0,1.65-.37,4.92,4.92,0,0,0,1.1-.92L450,51.07a5.11,5.11,0,0,1-4.4,2,9.46,9.46,0,0,1-2.21-.37,2.67,2.67,0,0,1-1.65-1.1c-.36-.55-.91-.92-1.1-1.65a9.44,9.44,0,0,1-.36-2.2,8,8,0,0,1,.36-2.2,3.38,3.38,0,0,1,1.1-1.66,9.28,9.28,0,0,1,1.65-1.1,8.11,8.11,0,0,1,2.21-.36,7.88,7.88,0,0,1,2,.36,4.41,4.41,0,0,1,1.65,1.1,8.36,8.36,0,0,1,1.1,1.66A8.62,8.62,0,0,1,450.5,48Zm-2.57-1.1a1.69,1.69,0,0,0-.18-.92c-.19-.36-.19-.55-.37-.73a2.56,2.56,0,0,0-.73-.55,2.27,2.27,0,0,0-1.1-.19,2.76,2.76,0,0,0-2,.74,2.92,2.92,0,0,0-.92,1.83l5.32-.18Z"/><path class="cls-3" d="M454.17,47.4l-3.67-4.77h3.12l2.2,3.12,2.2-3.12H461l-3.66,4.77,4.21,5.32h-3.11l-2.57-3.67-2.57,3.67h-2.94Z"/><path class="cls-3" d="M461.5,44.83v-2h1.84V39.88h2.38v2.93h2.57v2h-2.57V49.6a2.25,2.25,0,0,0,.19,1.1c.18.37.55.37,1.1.37h.55a.67.67,0,0,0,.55-.19v2c-.19,0-.55.19-.74.19h-.91a3.9,3.9,0,0,1-1.65-.19,1.77,1.77,0,0,1-.92-.73l-.55-1.1c0-.37-.19-.92-.19-1.47V44.83Z"/><path class="cls-2" d="M469.94,38.23h-.73v1.83h-.37V38.23h-.73v-.18h1.65v.18Zm2.75,1.83h-.36V38.23h0l-.74,1.83h-.18l-.74-1.83h0v1.83h-.18v-2.2H471l.74,1.65.73-1.65h.37l-.19,2.2Z"/></g></g></svg>