<svg xmlns="http://www.w3.org/2000/svg" viewBox="0 0 600 100"><defs><style>.cls-1{fill:#fff;}.cls-2{fill:#005cb9;}.cls-3{fill:#7c868c;}</style></defs><g id="Layer_2" data-name="Layer 2"><g id="Layer_1-2" data-name="Layer 1"><rect class="cls-1" width="600" height="100"/><path class="cls-2" d="M375.85,37.68H381a7,7,0,0,1,2,.18,5.58,5.58,0,0,1,1.83.74,4.26,4.26,0,0,1,1.29,1.28,3.68,3.68,0,0,1,.36,2,3.61,3.61,0,0,1-.91,2.56A4.93,4.93,0,0,1,383,45.93l4,6.61h-3.11l-3.49-6.42h-2v6.42h-2.56V37.68Zm4.76,6.42h1.1a2.7,2.7,0,0,0,1.11-.37,1.44,1.44,0,0,0,.73-.73,2,2,0,0,0,.37-1.1c0-.37,0-.74-.19-.92a2.42,2.42,0,0,0-.73-.55c-.18-.18-.55-.18-.92-.37s-.73,0-1.1,0H378.6v4.22l2-.18Z"/><path class="cls-2" d="M397.49,47.58v.74h-7.7a8.05,8.05,0,0,0,.18.91,2.62,2.62,0,0,0,.55.74,4.26,4.26,0,0,0,.92.55c.36,0,.73.18,1.1.18a3.35,3.35,0,0,0,2.75-1.28l1.65,1.28a5.09,5.09,0,0,1-4.4,2,8.81,8.81,0,0,1-2.2-.37,2.67,2.67,0,0,1-1.66-1.1c-.36-.55-.91-.92-1.1-1.65a9.36,9.36,0,0,1-.36-2.2,8,8,0,0,1,.36-2.2,3.31,3.31,0,0,1,1.1-1.65,8.36,8.36,0,0,1,1.66-1.1,7.6,7.6,0,0,1,2.2-.37,7.49,7.49,0,0,1,2,.37,2.85,2.85,0,0,1,1.47,1.1,11.51,11.51,0,0,1,1.1,1.65A10.33,10.33,0,0,1,397.49,47.58Zm-2.57-1.1a1.66,1.66,0,0,0-.18-.91,1,1,0,0,0-.37-.74,2.56,2.56,0,0,0-.73-.55,2.38,2.38,0,0,0-1.1-.18,2.75,2.75,0,0,0-2,.73,3,3,0,0,0-.92,1.84l5.32-.19Z"/><path class="cls-2" d="M405,45.2a1.84,1.84,0,0,0-.92-.74,2.65,2.65,0,0,0-1.28-.36,2.34,2.34,0,0,0-1.1.18,1,1,0,0,0,0,1.84,9.18,9.18,0,0,0,1.65.55,2.64,2.64,0,0,1,1.1.36l1.1.55a1.81,1.81,0,0,1,.73.92,2.58,2.58,0,0,1,.37,1.28,5.29,5.29,0,0,1-.37,1.66,5.14,5.14,0,0,1-.91,1.1c-.37.18-.92.36-1.29.55a4.61,4.61,0,0,1-1.65.18,10.33,10.33,0,0,1-2.38-.37,4.14,4.14,0,0,1-1.84-1.28L399.87,50a1.9,1.9,0,0,0,1.1.91,3.39,3.39,0,0,0,1.47.37H403a.67.67,0,0,0,.55-.18c.19,0,.19-.19.37-.37,0-.18.18-.37.18-.55a1,1,0,0,0-.55-.92,7.7,7.7,0,0,0-1.83-.55,2.59,2.59,0,0,1-1.1-.36,4.26,4.26,0,0,1-.92-.55L399,47a2.6,2.6,0,0,1-.19-1.28,3.53,3.53,0,0,1,.37-1.47,2.21,2.21,0,0,1,.92-.92,9.75,9.75,0,0,1,1.28-.55,4.13,4.13,0,0,1,1.47-.18A8.89,8.89,0,0,1,405,43a2.67,2.67,0,0,1,1.65,1.1Z"/><path class="cls-2" d="M410.33,42.45v1.46h0c.18-.18.18-.36.55-.55a2.75,2.75,0,0,1,.73-.55c.37-.18.55-.36.92-.36s.73-.19,1.28-.19a6.67,6.67,0,0,1,2,.37,4.29,4.29,0,0,1,1.65,1.1,3.72,3.72,0,0,1,.92,1.65,6.73,6.73,0,0,1,.37,2,9.38,9.38,0,0,1-.37,2.2,3.52,3.52,0,0,1-.92,1.65,3.6,3.6,0,0,1-1.65,1.1,5.67,5.67,0,0,1-4,0,4.89,4.89,0,0,1-1.47-1.28h0v6.42h-2.57v-15Zm5.87,4.95a2.36,2.36,0,0,0-.18-1.1l-.56-1.1a1.86,1.86,0,0,0-.91-.74,2.8,2.8,0,0,0-1.29-.18,1.74,1.74,0,0,0-1.28.37,1.86,1.86,0,0,0-.92.73c-.18.37-.36.74-.55,1.1a2.38,2.38,0,0,0-.18,1.1,2.34,2.34,0,0,0,.18,1.1l.55,1.1a1.88,1.88,0,0,0,.92.74,2.76,2.76,0,0,0,1.28.18,1.56,1.56,0,0,0,1.29-.37,1.79,1.79,0,0,0,.91-.73l.56-1.1C416.2,48.32,416.2,48,416.2,47.4Z"/><path class="cls-2" d="M420.23,47.4a9.38,9.38,0,0,1,.37-2.2,3.6,3.6,0,0,1,1.1-1.65,14.42,14.42,0,0,1,1.84-1.1,4.59,4.59,0,0,1,2.2-.37,9,9,0,0,1,2.2.37,3.78,3.78,0,0,1,1.83,1.1,3.25,3.25,0,0,1,1.1,1.65,8.89,8.89,0,0,1,.37,2.2,8.89,8.89,0,0,1-.37,2.2,3.71,3.71,0,0,1-1.1,1.65,6,6,0,0,1-1.83,1.1,9,9,0,0,1-2.2.37,8.81,8.81,0,0,1-2.2-.37,3.77,3.77,0,0,1-1.84-1.1,3.29,3.29,0,0,1-1.1-1.65A6.9,6.9,0,0,1,420.23,47.4Zm2.57,0a2.25,2.25,0,0,0,.19,1.1l.55,1.1a1.79,1.79,0,0,0,.91.73,2.62,2.62,0,0,0,1.29.37,1.53,1.53,0,0,0,1.28-.37,1.81,1.81,0,0,0,.92-.73l.55-1.1a3.45,3.45,0,0,0,0-2.2l-.55-1.1a1.88,1.88,0,0,0-.92-.74,2.76,2.76,0,0,0-1.28-.18,2.8,2.8,0,0,0-1.29.18,1.86,1.86,0,0,0-.91.74L423,46.3C423,46.67,422.8,47,422.8,47.4Z"/><path class="cls-2" d="M432.89,42.45h2.38V44.1h0a2.52,2.52,0,0,1,1.1-1.29,3.8,3.8,0,0,1,2-.55,3.65,3.65,0,0,1,1.65.37,2.61,2.61,0,0,1,1.1.92,3,3,0,0,1,.74,1.28,4.13,4.13,0,0,1,.18,1.47v6.42h-2.57v-6.6c0-.37-.18-.55-.18-.92-.18-.18-.37-.55-.55-.55-.18-.19-.55-.19-.92-.19a2.27,2.27,0,0,0-1.1.19,2.42,2.42,0,0,0-.73.55,1.36,1.36,0,0,0-.37.92,8.05,8.05,0,0,1-.18.91v5.51h-2.57V42.45Z"/><path class="cls-2" d="M450.13,45.2a1.84,1.84,0,0,0-.92-.74,2.65,2.65,0,0,0-1.28-.36,2.36,2.36,0,0,0-1.1.18,1,1,0,0,0,0,1.84,9.47,9.47,0,0,0,1.65.55,2.64,2.64,0,0,1,1.1.36l1.1.55a1.88,1.88,0,0,1,.74.92,2.68,2.68,0,0,1,.36,1.28,5.56,5.56,0,0,1-.36,1.66,5.21,5.21,0,0,1-.92,1.1c-.37.18-.92.36-1.29.55a5.17,5.17,0,0,1-1.65.18,10.33,10.33,0,0,1-2.38-.37,4.25,4.25,0,0,1-1.84-1.28L445,50a1.87,1.87,0,0,0,1.1.91,3.3,3.3,0,0,0,1.46.37h.55a.67.67,0,0,0,.55-.18c.19,0,.19-.19.37-.37,0-.18.18-.37.18-.55a1,1,0,0,0-.55-.92,7.7,7.7,0,0,0-1.83-.55,2.64,2.64,0,0,1-1.1-.36,4.53,4.53,0,0,1-.92-.55l-.73-.74a2.74,2.74,0,0,1-.18-1.28,3.53,3.53,0,0,1,.36-1.47,2.26,2.26,0,0,1,.92-.92,10.38,10.38,0,0,1,1.28-.55,4.13,4.13,0,0,1,1.47-.18,8.89,8.89,0,0,1,2.2.37,2.62,2.62,0,0,1,1.65,1.1Z"/><path class="cls-2" d="M463.15,47.58v.74h-7.7a8.05,8.05,0,0,0,.18.91,2.83,2.83,0,0,0,.55.74,4.53,4.53,0,0,0,.92.55c.37,0,.74.18,1.1.18a5.17,5.17,0,0,0,1.65-.37,4.7,4.7,0,0,0,1.1-.91l1.65,1.28a5.06,5.06,0,0,1-4.4,2,8.89,8.89,0,0,1-2.2-.37,2.67,2.67,0,0,1-1.65-1.1,2.67,2.67,0,0,1-1.1-1.65,9.38,9.38,0,0,1-.37-2.2,8,8,0,0,1,.37-2.2,3.25,3.25,0,0,1,1.1-1.65,8.31,8.31,0,0,1,1.65-1.1,7.66,7.66,0,0,1,2.2-.37,7.48,7.48,0,0,1,2,.37,2.85,2.85,0,0,1,1.47,1.1,13.47,13.47,0,0,1,1.1,1.65A5.49,5.49,0,0,1,463.15,47.58Zm-2.56-1.1a1.58,1.58,0,0,0-.19-.91,1,1,0,0,0-.36-.74,2.62,2.62,0,0,0-.74-.55,2.34,2.34,0,0,0-1.1-.18,2.77,2.77,0,0,0-2,.73,3.46,3.46,0,0,0-.91,1.84l5.32-.19Z"/><path class="cls-3" d="M464.81,37.86h-.74V39.7h-.37V37.86H463v-.18h1.65l.19.18Zm2.56,1.84H467V38.05h0l-.74,1.65h-.18l-.73-1.65h0V39.7H465v-2h.37l.55,1.65.55-1.65h.36v2Z"/><path class="cls-2" d="M347.6,24.47c5.5-.55,9.72-.18,13,1.29a7.59,7.59,0,0,1,3.49,3.3,12.17,12.17,0,0,1,1.1,9.35L365,39l-1.65,4.59a8.16,8.16,0,0,1,1.29,1.28,8,8,0,0,1,1.83,5.5,8.35,8.35,0,0,1-1.83,5.51,5.27,5.27,0,0,1-8.81,0,1.75,1.75,0,0,1-.55-.92l-3.85,2.93a75.78,75.78,0,0,1-16,9.91c-1.28.55-2.57,1.1-4,1.65a37.25,37.25,0,0,1-8.07,2c-8.07,1.1-13.76-.19-16.7-4.22a7.56,7.56,0,0,1-1.28-2q-1.65-4.12,0-9.9A39,39,0,0,1,310,46.12a42.55,42.55,0,0,0-4.59,6.05c-2.93,4.95-4.4,9.9-3.67,14.67a10.46,10.46,0,0,0,3.3,6.61l.37.36c3.67,2.94,9,4.22,16.33,3.49a76.3,76.3,0,0,0,10.82-2.39c1.1-.36-.37.19,0,0a68.92,68.92,0,0,0,23.11-13.39,10.07,10.07,0,0,0,4.77,1.1A10.36,10.36,0,0,0,368.32,59a12.35,12.35,0,0,0,3.31-8.63A11.28,11.28,0,0,0,370,44.1a19.67,19.67,0,0,0,1.1-11.56,11.09,11.09,0,0,0-4.41-7.15,26,26,0,0,0-3.11-1.65,28.32,28.32,0,0,0-11.38-1.1,40.54,40.54,0,0,0-11.92,3.12,29.66,29.66,0,0,1,7.34-1.29"/><path class="cls-2" d="M313.66,44.28a7.3,7.3,0,0,1,1.84-2.57,4.41,4.41,0,0,1,2.75-.73,3.79,3.79,0,0,1,2.94.92,2.73,2.73,0,0,1,1.1,2.38c0,.92-.55,1.65-1.65,2.39a7,7,0,0,1-4.59.73v3.67a7,7,0,0,1,4.59.73,3.2,3.2,0,0,1,1.65,2.57,3.65,3.65,0,0,1-1.1,2.57,4.7,4.7,0,0,1-2.94.91,4.49,4.49,0,0,1-2.75-.91,7.3,7.3,0,0,1-1.84-2.57l-4.58,1.28a7,7,0,0,0,2.57,4.41,9.79,9.79,0,0,0,6.23,2,10.37,10.37,0,0,0,6.79-2.2,6.5,6.5,0,0,0,2.57-5.32A5.31,5.31,0,0,0,326,50.88a6.94,6.94,0,0,0-2.2-1.65,4.89,4.89,0,0,0,2.2-1.65,4.39,4.39,0,0,0,1.29-3.3,6.35,6.35,0,0,0-2.57-5,11.46,11.46,0,0,0-6.79-2c-2.56,0-4.77.55-6.23,1.84-1.65,1.28-2.57,2.56-2.57,4Z"/><path class="cls-2" d="M361.72,42.45l1.65-4.4a8.48,8.48,0,0,0-3.12-.37,10.35,10.35,0,0,0-7.88,3.67,12.49,12.49,0,0,0-3.3,8.8,11.76,11.76,0,0,0,1.28,5.69c1.28-1.1,2.57-1.84,4-2.94a12.64,12.64,0,0,1-.36-2.75,8,8,0,0,1,1.83-5.5,5.34,5.34,0,0,1,4.22-2.39,3.93,3.93,0,0,1,1.65.19"/><path class="cls-2" d="M341.73,50.7A4.59,4.59,0,0,1,343.2,54a4,4,0,0,1-1.47,3.3,4.58,4.58,0,1,1,0-6.6m-3.3-5.32h-.92l5.87-7.7h-5.69l-5.32,7.52c-.55.73-1.1,1.65-1.65,2.38a13.65,13.65,0,0,0-1.83,5c0,.55-.18.91-.18,1.46a6.8,6.8,0,0,0,2,5.14,4.1,4.1,0,0,0,.92.73,9.74,9.74,0,0,0,6.79,2.57,10,10,0,0,0,6.78-2.57,8,8,0,0,0,0-12.1,10.23,10.23,0,0,0-6.78-2.39"/><polygon class="cls-3" points="285.97 37.86 285.97 40.43 293.12 40.43 293.12 61.71 295.87 61.71 295.87 40.43 302.84 40.43 302.84 37.86 285.97 37.86"/><polygon class="cls-3" points="281.2 55.65 265.79 37.86 265.61 37.86 264.87 37.86 264.87 61.71 267.81 61.71 267.81 44.1 283.03 61.71 283.03 61.71 283.77 61.71 283.77 37.86 281.2 37.86 281.2 55.65"/><path class="cls-3" d="M193.52,51.44H186l3.85-7.89Zm-3.3-13.58h-.73l-11,23.66v.19h2.94L184.9,54h9.91l3.85,7.71h2.75L190.22,37.86Z"/><path class="cls-3" d="M255.15,51.44h-7.52l3.85-7.89Zm-3.3-13.58h-.73L239.93,61.52v.19h2.93L246.53,54h9.91l3.67,7.71H263L251.85,37.86Z"/><path class="cls-3" d="M238.28,50.15a9.12,9.12,0,0,1-1.47,5.32,6.54,6.54,0,0,1-4,2.94A27.37,27.37,0,0,1,226,59h-2.57V40.43h1.47a37.07,37.07,0,0,1,7.34.55,7.9,7.9,0,0,1,4.4,3.3,8.92,8.92,0,0,1,1.46,3.85,8,8,0,0,1,.19,2M239,43h0a10.67,10.67,0,0,0-5.5-4.22,27.51,27.51,0,0,0-7.7-.92h-5.14V61.71h7.7a15.2,15.2,0,0,0,7-1.29,9.5,9.5,0,0,0,4-4A11.75,11.75,0,0,0,241,50.15,13,13,0,0,0,239,43"/><path class="cls-3" d="M147.48,52.72H155a6.91,6.91,0,0,1-2.93,5,9.58,9.58,0,0,1-6,2,10.91,10.91,0,0,1-5.32-1.28,10.63,10.63,0,0,1-3.85-3.67,10.23,10.23,0,0,1-1.47-5A8.81,8.81,0,0,1,136.66,45a9.21,9.21,0,0,1,3.85-3.67,10.17,10.17,0,0,1,5.14-1.29,14.62,14.62,0,0,1,4.59.92,13.36,13.36,0,0,1,4.21,2.93h0l2-2-.18-.19a21.31,21.31,0,0,0-5.14-3.48,16.26,16.26,0,0,0-5.68-1.1,13.59,13.59,0,0,0-6.61,1.65,11.84,11.84,0,0,0-4.58,4.4,12.72,12.72,0,0,0-1.65,6.24,12.18,12.18,0,0,0,2.93,8.07A13.2,13.2,0,0,0,146,61.89a12.49,12.49,0,0,0,8.8-3.3,11.91,11.91,0,0,0,3.3-8.81V49.6H147.67l-.19,3.12Z"/><path class="cls-3" d="M174.26,57.67a6.89,6.89,0,0,1-4.95,2.2,6.15,6.15,0,0,1-4.95-2.38c-1.1-1.47-1.1-3.49-1.1-5.14V37.86h-2.57v15c0,2.57.18,5,2.38,7a9.91,9.91,0,0,0,6.42,2.39,8.74,8.74,0,0,0,6.61-2.75c2-2,2.2-4,2.2-6.61v-15h-2.57V52.54c-.18,1.65-.18,3.66-1.47,5.13"/><path class="cls-3" d="M205.45,48.13h0v-7.7h3.85a13.8,13.8,0,0,1,3.48.37,3.85,3.85,0,0,1,1.65,1.28,3.66,3.66,0,0,1,.55,2,4.18,4.18,0,0,1-.55,2,2.3,2.3,0,0,1-1.65,1.28,8.05,8.05,0,0,1-3.3.37h-4ZM210,50.7h.18a10.4,10.4,0,0,0,3.86-.73,6.51,6.51,0,0,0,2.75-2.2,6.36,6.36,0,0,0,.91-3.31,5.9,5.9,0,0,0-1.28-4,6.41,6.41,0,0,0-3.48-2.2,34.26,34.26,0,0,0-5.32-.37h-4.77V61.71h2.75V50.88h1.28L215,61.71h3.31Z"/></g></g></svg>