<svg xmlns="http://www.w3.org/2000/svg" viewBox="0 0 600 100"><defs><style>.cls-1{fill:#fff;}.cls-2{fill:#005cb9;}.cls-3{fill:#7c868c;}.cls-4{fill:#ea1d23;}</style></defs><g id="Layer_2" data-name="Layer 2"><g id="Layer_1-2" data-name="Layer 1"><rect class="cls-1" width="600" height="100"/><path class="cls-2" d="M432.42,35.94c0,21.33-33.66,41.56-52.79,41.56-11,0-17.1-5-17.1-12.87,0-5.71,2.58-10.85,5-14.17l.36.92a21.55,21.55,0,0,0-2.39,9.38c0,4.6,2.95,11,13.25,11,24.46,0,48.18-23.54,48.18-36.23,0-12-11-11.22-14.34-11.22a81.26,81.26,0,0,0-11,1.29,40.35,40.35,0,0,1,14.53-3.13C423.59,22.33,432.42,24.72,432.42,35.94Z"/><polygon class="cls-3" points="307.54 38.14 307.54 40.72 314.53 40.72 314.53 61.68 317.29 61.68 317.29 40.72 324.28 40.72 324.28 38.14 307.54 38.14"/><polygon class="cls-3" points="302.76 55.8 287.49 38.14 287.49 38.14 286.57 38.14 286.57 61.68 289.33 61.68 289.33 44.4 304.6 61.68 304.6 61.68 305.33 61.68 305.33 38.14 302.76 38.14 302.76 55.8"/><path class="cls-3" d="M212.46,38.14h-.74l-11,23.36v.18h2.94L207.12,54h9.93l3.68,7.72h2.76l-11-23.54Zm3.31,13.43h-7.36l3.68-7.91Z"/><path class="cls-3" d="M273.7,38.14H273l-11,23.36v.18h2.94L268.55,54h9.93L282,61.5h2.76l-11-23.36ZM277,51.57h-7.54l3.68-7.91Z"/><path class="cls-3" d="M261,43.11h0a10.69,10.69,0,0,0-5.52-4.23A27.13,27.13,0,0,0,248,38h-5V61.68h7.54c2.94,0,5.15-.36,6.8-1.28a8.29,8.29,0,0,0,3.86-4,11.7,11.7,0,0,0,1.66-6.25A12.78,12.78,0,0,0,261,43.11Zm-.74,7.17a9.57,9.57,0,0,1-1.47,5.33,7.28,7.28,0,0,1-4,3,26.67,26.67,0,0,1-6.62.55h-2.58V40.72H247a35.21,35.21,0,0,1,7.18.55,8.48,8.48,0,0,1,4.41,3.13A10.92,10.92,0,0,1,260.27,50.28Z"/><path class="cls-3" d="M170,52.86h7.36a7,7,0,0,1-2.94,5,9.64,9.64,0,0,1-6.07,2A10.91,10.91,0,0,1,163,58.56a10.68,10.68,0,0,1-3.86-3.68,9.25,9.25,0,0,1-1.47-5,8.91,8.91,0,0,1,1.29-4.78,10.6,10.6,0,0,1,3.86-3.68A10.2,10.2,0,0,1,168,40.17a14.64,14.64,0,0,1,4.6.91,13.62,13.62,0,0,1,4.23,3h0l2-2-.18-.18a21.31,21.31,0,0,0-5.15-3.49,15.65,15.65,0,0,0-5.7-1.11,13.56,13.56,0,0,0-6.63,1.66,11.77,11.77,0,0,0-4.59,4.41,12.19,12.19,0,0,0-1.66,6.26,11.75,11.75,0,0,0,2.94,7.9,12.83,12.83,0,0,0,10.3,4.42,12.48,12.48,0,0,0,8.65-3.13c2.2-2.21,3.12-5.15,3.12-8.83H169.6v3Z"/><path class="cls-3" d="M196.64,57.82a6.68,6.68,0,0,1-9.93,0c-1.1-1.47-1.1-3.31-1.1-5.15V38.33H183V53.22c0,2.58.18,4.79,2.39,6.81a9.94,9.94,0,0,0,6.44,2.39,8.75,8.75,0,0,0,6.62-2.76c2-2,2.21-4,2.21-6.62V38.14h-2.58V52.67C197.93,54.33,197.93,56.35,196.64,57.82Z"/><path class="cls-3" d="M232.14,50.83h.18a10.44,10.44,0,0,0,3.86-.73,6.49,6.49,0,0,0,2.76-2.21,6.36,6.36,0,0,0,.92-3.31,6.11,6.11,0,0,0-4.78-6.25,33.23,33.23,0,0,0-5.34-.37H225V61.68h2.76V50.83H229l8.09,10.85h3.31Zm-4.42-2.39h0V40.72h3.86a14.61,14.61,0,0,1,3.5.36,4,4,0,0,1,1.65,1.29,3.7,3.7,0,0,1,.56,2,4.2,4.2,0,0,1-.56,2,3,3,0,0,1-1.65,1.29,8.34,8.34,0,0,1-3.31.36h-4.05Z"/><path class="cls-4" d="M445.11,57.45v4.42H429.66V47a21.27,21.27,0,0,0,2.57-8.64h2V57.64h10.85Z"/><path class="cls-4" d="M339,61.68l-5.33-9.74h-2.39v9.74h-4.79V38.14h8.28a10.12,10.12,0,0,1,3.31.37,6.24,6.24,0,0,1,2.76,1.1,5.89,5.89,0,0,1,2,2.21,6.31,6.31,0,0,1,.74,3.31,7.44,7.44,0,0,1-1.47,4.41,5.7,5.7,0,0,1-3.68,2l6.25,10.3-5.7-.19Zm-4.78-13.79h1.65a3.35,3.35,0,0,0,1.47-.37,2.45,2.45,0,0,0,1.11-.92,3.72,3.72,0,0,0,.37-1.65,3.49,3.49,0,0,0-.37-1.47,1.83,1.83,0,0,0-.92-.74,3.53,3.53,0,0,0-1.47-.37h-4.78v5.52Z"/><path class="cls-4" d="M361.61,57.45a27,27,0,0,0-.92,4.42H345.61V38.14h15.82v4.42H350.21v5h10.48v4.23H350.21v5.7Z"/><path class="cls-4" d="M418.07,38.14h-4l-10.3,23.73a79.19,79.19,0,0,0,6.8-5,2.62,2.62,0,0,1,.74-.55l4.78-12.14,2,5.15c1.11-1.47,2.21-2.76,3.13-4.23ZM424.88,54c-1.11,1.29-2.21,2.57-3.5,3.86l1.47,3.86h5.34Z"/><polygon class="cls-4" points="386.26 61.68 386.26 38.14 402.07 38.14 402.07 42.37 391.04 42.37 391.04 47.52 401.52 47.52 401.52 51.75 391.04 51.75 391.04 57.45 402.62 57.45 402.62 61.68 386.26 61.68"/><path class="cls-3" d="M439,38.33h-.74v1.84h-.36V38.33h-.74v-.19h1.66v.19Zm2.76,1.84h-.37V38.33h0l-.74,1.84h-.18l-.74-1.84h0v1.84h-.36V38H440l.73,1.65.74-1.65h.37v2.21Z"/><polygon class="cls-4" points="371.91 61.68 362.53 38.14 368.05 38.14 374.12 54.88 380.37 38.14 385.34 38.14 375.77 61.68 371.91 61.68"/></g></g></svg>